<svg aria-hidden="true" style="position: absolute; width: 0; height: 0; overflow: hidden;" version="1.1" xmlns="http://www.w3.org/2000/svg" xmlns:xlink="http://www.w3.org/1999/xlink">
<defs>
<symbol id="collapse" viewBox="0 0 20 20">
<path d="M4 16V4H2v12h2zM13 15l-1.5-1.5L14 11H6V9h8l-2.5-2.5L13 5l5 5-5 5z"></path>
</symbol>
<symbol id="users" viewBox="0 0 20 20">
<path fill-rule="evenodd" d="M7 2a4 4 0 00-1.015 7.87c-.098.64-.651 1.13-1.318 1.13A2.667 2.667 0 002 13.667V18h2v-4.333c0-.368.298-.667.667-.667.908 0 1.732-.363 2.333-.953.601.59 1.425.953 2.333.953.369 0 .667.299.667.667V18h2v-4.333A2.667 2.667 0 009.333 11c-.667 0-1.22-.49-1.318-1.13A4.002 4.002 0 007 2zM5 6a2 2 0 104 0 2 2 0 00-4 0z" clip-rule="evenodd"></path>
<path d="M14 11.83V18h4v-3.75c0-.69-.56-1.25-1.25-1.25a.75.75 0 01-.75-.75v-.42a3.001 3.001 0 10-2 0z"></path>
</symbol>
<symbol id="expand" viewBox="0 0 20 20">
<path d="M14.5 6.5L10 11 5.5 6.5 4 8l6 6 6-6-1.5-1.5z"></path>
</symbol>
<symbol id="github" viewBox="0 0 24 24">
<path d="M12 .297c-6.63 0-12 5.373-12 12 0 5.303 3.438 9.8 8.205 11.385.6.113.82-.258.82-.577 0-.285-.01-1.04-.015-2.04-3.338.724-4.042-1.61-4.042-1.61C4.422 18.07 3.633 17.7 3.633 17.7c-1.087-.744.084-.729.084-.729 1.205.084 1.838 1.236 1.838 1.236 1.07 1.835 2.809 1.305 3.495.998.108-.776.417-1.305.76-1.605-2.665-.3-5.466-1.332-5.466-5.93 0-1.31.465-2.38 1.235-3.22-.135-.303-.54-1.523.105-3.176 0 0 1.005-.322 3.3 1.23.96-.267 1.98-.399 3-.405 1.02.006 2.04.138 3 .405 2.28-1.552 3.285-1.23 3.285-1.23.645 1.653.24 2.873.12 3.176.765.84 1.23 1.91 1.23 3.22 0 4.61-2.805 5.625-5.475 5.92.42.36.81 1.096.81 2.22 0 1.606-.015 2.896-.015 3.286 0 .315.21.69.825.57C20.565 22.092 24 17.592 24 12.297c0-6.627-5.373-12-12-12"/>
</symbol>
<symbol id="react" viewBox="0 0 24 24">
<path d="M12 9.861A2.139 2.139 0 1 0 12 14.139 2.139 2.139 0 1 0 12 9.861zM6.008 16.255l-.472-.12C2.018 15.246 0 13.737 0 11.996s2.018-3.25 5.536-4.139l.472-.119.133.468a23.53 23.53 0 0 0 1.363 3.578l.101.213-.101.213a23.307 23.307 0 0 0-1.363 3.578l-.133.467zM5.317 8.95c-2.674.751-4.315 1.9-4.315 3.046 0 1.145 1.641 2.294 4.315 3.046a24.95 24.95 0 0 1 1.182-3.046A24.752 24.752 0 0 1 5.317 8.95zM17.992 16.255l-.133-.469a23.357 23.357 0 0 0-1.364-3.577l-.101-.213.101-.213a23.42 23.42 0 0 0 1.364-3.578l.133-.468.473.119c3.517.889 5.535 2.398 5.535 4.14s-2.018 3.25-5.535 4.139l-.473.12zm-.491-4.259c.48 1.039.877 2.06 1.182 3.046 2.675-.752 4.315-1.901 4.315-3.046 0-1.146-1.641-2.294-4.315-3.046a24.788 24.788 0 0 1-1.182 3.046zM5.31 8.945l-.133-.467C4.188 4.992 4.488 2.494 6 1.622c1.483-.856 3.864.155 6.359 2.716l.34.349-.34.349a23.552 23.552 0 0 0-2.422 2.967l-.135.193-.235.02a23.657 23.657 0 0 0-3.785.61l-.472.119zm1.896-6.63c-.268 0-.505.058-.705.173-.994.573-1.17 2.565-.485 5.253a25.122 25.122 0 0 1 3.233-.501 24.847 24.847 0 0 1 2.052-2.544c-1.56-1.519-3.037-2.381-4.095-2.381zM16.795 22.677c-.001 0-.001 0 0 0-1.425 0-3.255-1.073-5.154-3.023l-.34-.349.34-.349a23.53 23.53 0 0 0 2.421-2.968l.135-.193.234-.02a23.63 23.63 0 0 0 3.787-.609l.472-.119.134.468c.987 3.484.688 5.983-.824 6.854a2.38 2.38 0 0 1-1.205.308zm-4.096-3.381c1.56 1.519 3.037 2.381 4.095 2.381h.001c.267 0 .505-.058.704-.173.994-.573 1.171-2.566.485-5.254a25.02 25.02 0 0 1-3.234.501 24.674 24.674 0 0 1-2.051 2.545zM18.69 8.945l-.472-.119a23.479 23.479 0 0 0-3.787-.61l-.234-.02-.135-.193a23.414 23.414 0 0 0-2.421-2.967l-.34-.349.34-.349C14.135 1.778 16.515.767 18 1.622c1.512.872 1.812 3.37.824 6.855l-.134.468zM14.75 7.24c1.142.104 2.227.273 3.234.501.686-2.688.509-4.68-.485-5.253-.988-.571-2.845.304-4.8 2.208A24.849 24.849 0 0 1 14.75 7.24zM7.206 22.677A2.38 2.38 0 0 1 6 22.369c-1.512-.871-1.812-3.369-.823-6.854l.132-.468.472.119c1.155.291 2.429.496 3.785.609l.235.02.134.193a23.596 23.596 0 0 0 2.422 2.968l.34.349-.34.349c-1.898 1.95-3.728 3.023-5.151 3.023zm-1.19-6.427c-.686 2.688-.509 4.681.485 5.254.987.563 2.843-.305 4.8-2.208a24.998 24.998 0 0 1-2.052-2.545 24.976 24.976 0 0 1-3.233-.501zM12 16.878c-.823 0-1.669-.036-2.516-.106l-.235-.02-.135-.193a30.388 30.388 0 0 1-1.35-2.122 30.354 30.354 0 0 1-1.166-2.228l-.1-.213.1-.213a30.3 30.3 0 0 1 1.166-2.228c.414-.716.869-1.43 1.35-2.122l.135-.193.235-.02a29.785 29.785 0 0 1 5.033 0l.234.02.134.193a30.006 30.006 0 0 1 2.517 4.35l.101.213-.101.213a29.6 29.6 0 0 1-2.517 4.35l-.134.193-.234.02c-.847.07-1.694.106-2.517.106zm-2.197-1.084c1.48.111 2.914.111 4.395 0a29.006 29.006 0 0 0 2.196-3.798 28.585 28.585 0 0 0-2.197-3.798 29.031 29.031 0 0 0-4.394 0 28.477 28.477 0 0 0-2.197 3.798 29.114 29.114 0 0 0 2.197 3.798z"/>
</symbol>
<symbol id="redux" viewBox="0 0 24 24">
<path d="M16.633 16.504c.869-.075 1.543-.84 1.499-1.754-.046-.914-.795-1.648-1.708-1.648h-.061c-.943.031-1.678.824-1.648 1.769.03.479.226.869.494 1.153-1.048 2.038-2.621 3.536-5.004 4.795-1.603.838-3.296 1.154-4.944.929-1.378-.194-2.456-.81-3.116-1.798-.988-1.499-1.078-3.116-.255-4.734.601-1.169 1.499-2.023 2.099-2.443-.15-.389-.33-1.048-.42-1.542-4.436 3.177-3.985 7.521-2.637 9.574 1.004 1.498 3.057 2.456 5.304 2.456.599 0 1.229-.044 1.843-.194 3.896-.749 6.847-3.086 8.54-6.532l.014-.031zM21.981 12.758c-2.321-2.727-5.738-4.225-9.634-4.225h-.51c-.253-.554-.837-.899-1.497-.899h-.045c-.943 0-1.678.81-1.647 1.753.03.898.794 1.648 1.708 1.648h.074c.675-.03 1.259-.45 1.498-1.049h.555c2.309 0 4.495.674 6.488 1.992 1.527 1.004 2.622 2.322 3.236 3.896.538 1.288.509 2.547-.045 3.597-.854 1.647-2.293 2.517-4.195 2.517-1.199 0-2.367-.375-2.967-.644-.359.298-.959.793-1.394 1.093 1.318.598 2.652.943 3.94.943 2.922 0 5.093-1.647 5.918-3.236.898-1.798.824-4.824-1.469-7.416l-.014.03zM6.49 17.042c.029.899.793 1.648 1.708 1.648h.06c.959-.03 1.693-.823 1.648-1.768 0-.899-.779-1.647-1.693-1.647h-.061c-.06 0-.149 0-.225.029-1.243-2.098-1.768-4.346-1.572-6.771.119-1.828.719-3.417 1.797-4.735.899-1.124 2.592-1.679 3.746-1.708 3.236-.061 4.585 3.971 4.689 5.574l1.498.449c-.345-4.914-3.4-7.492-6.322-7.492-2.742 0-5.273 1.993-6.293 4.915-1.393 3.896-.479 7.641 1.229 10.638-.149.195-.239.539-.209.868z"/>
</symbol>
<symbol id="sass" viewBox="0 0 24 24">
<path d="M12 0c6.627 0 12 5.373 12 12s-5.373 12-12 12S0 18.627 0 12 5.373 0 12 0zM9.615 15.998c.175.645.156 1.248-.024 1.792l-.065.18c-.024.061-.052.12-.078.176-.14.29-.326.56-.555.81-.698.759-1.672 1.047-2.09.805-.45-.262-.226-1.335.584-2.19.871-.918 2.12-1.509 2.12-1.509v-.003l.108-.061zm9.911-10.861c-.542-2.133-4.077-2.834-7.422-1.645-1.989.707-4.144 1.818-5.693 3.267C4.568 8.48 4.275 9.98 4.396 10.607c.427 2.211 3.457 3.657 4.703 4.73v.006c-.367.18-3.056 1.529-3.686 2.925-.675 1.47.105 2.521.615 2.655 1.575.436 3.195-.36 4.065-1.649.84-1.261.766-2.881.404-3.676.496-.135 1.08-.195 1.83-.104 2.101.24 2.521 1.56 2.43 2.1-.09.539-.523.854-.674.944-.15.091-.195.12-.181.181.015.09.091.09.21.075.165-.03 1.096-.45 1.141-1.471.045-1.29-1.186-2.729-3.375-2.7-.9.016-1.471.091-1.875.256-.03-.045-.061-.075-.105-.105-1.35-1.455-3.855-2.475-3.75-4.41.03-.705.285-2.564 4.8-4.814 3.705-1.846 6.661-1.335 7.171-.21.733 1.604-1.576 4.59-5.431 5.024-1.47.165-2.235-.404-2.431-.615-.209-.225-.239-.24-.314-.194-.12.06-.045.255 0 .375.12.3.585.825 1.396 1.095.704.225 2.43.359 4.5-.45 2.324-.899 4.139-3.405 3.614-5.505l.073.067z"/>
</symbol>
</defs>
</svg>